<svg id="visual" viewBox="0 0 800 300" width="800" height="300" xmlns="http://www.w3.org/2000/svg" xmlns:xlink="http://www.w3.org/1999/xlink" version="1.1"><path d="M0 259L19 261.3C38 263.7 76 268.3 114.2 269.3C152.3 270.3 190.7 267.7 228.8 264.8C267 262 305 259 343 257.3C381 255.7 419 255.3 457 256.7C495 258 533 261 571.2 263.2C609.3 265.3 647.7 266.7 685.8 265.5C724 264.3 762 260.7 781 258.8L800 257L800 301L781 301C762 301 724 301 685.8 301C647.7 301 609.3 301 571.2 301C533 301 495 301 457 301C419 301 381 301 343 301C305 301 267 301 228.8 301C190.7 301 152.3 301 114.2 301C76 301 38 301 19 301L0 301Z" fill="#fafafa" stroke-linecap="round" stroke-linejoin="miter"></path></svg>