<svg id="visual" viewBox="0 0 800 100" width="800" height="100" xmlns="http://www.w3.org/2000/svg" xmlns:xlink="http://www.w3.org/1999/xlink" version="1.1"><path d="M0 82L19 78.8C38 75.7 76 69.3 114.2 68.2C152.3 67 190.7 71 228.8 71.7C267 72.3 305 69.7 343 70C381 70.3 419 73.7 457 76.7C495 79.7 533 82.3 571.2 82.7C609.3 83 647.7 81 685.8 78.8C724 76.7 762 74.3 781 73.2L800 72L800 101L781 101C762 101 724 101 685.8 101C647.7 101 609.3 101 571.2 101C533 101 495 101 457 101C419 101 381 101 343 101C305 101 267 101 228.8 101C190.7 101 152.3 101 114.2 101C76 101 38 101 19 101L0 101Z" fill="#fafafa" stroke-linecap="round" stroke-linejoin="miter"></path></svg>