<svg width="64" height="56" viewBox="0 0 64 56" fill="none" xmlns="http://www.w3.org/2000/svg">
<path fill-rule="evenodd" clip-rule="evenodd" d="M22.0698 13.4718C22.0698 15.0858 20.8148 16.3908 19.2688 16.3908C17.7188 16.3908 16.4678 15.0858 16.4678 13.4718C16.4678 11.8598 17.7188 10.5488 19.2688 10.5488C20.8158 10.5488 22.0698 11.8588 22.0698 13.4718Z" fill="#C8832E"/>
<path fill-rule="evenodd" clip-rule="evenodd" d="M15.3525 25.2103C15.3525 25.2103 21.9195 21.1383 18.5675 12.9053C18.5675 12.9053 30.4505 30.0153 33.8055 22.7353C37.1595 15.4543 32.8265 31.6203 32.5475 32.0553C32.2685 32.4943 26.6765 36.8633 26.6765 36.8633H17.8705L15.3525 25.2103Z" fill="#C8832E"/>
<path d="M44.7347 16.3907C46.2833 16.3907 47.5387 15.0839 47.5387 13.4717C47.5387 11.8596 46.2833 10.5527 44.7347 10.5527C43.1861 10.5527 41.9307 11.8596 41.9307 13.4717C41.9307 15.0839 43.1861 16.3907 44.7347 16.3907Z" fill="#C8832E"/>
<path fill-rule="evenodd" clip-rule="evenodd" d="M48.6462 25.2103C48.6462 25.2103 42.0752 21.1383 45.4312 12.9053C45.4312 12.9053 33.5472 30.0153 30.1912 22.7353C26.8382 15.4543 31.1722 31.6203 31.4542 32.0553C31.7282 32.4943 37.3212 36.8633 37.3212 36.8633H46.1312L48.6462 25.2103Z" fill="#C8832E"/>
<path fill-rule="evenodd" clip-rule="evenodd" d="M60.07 10.5659C57.924 10.5659 56.186 12.4729 56.186 14.8289C56.186 15.4569 56.316 16.0529 56.539 16.5889C50.529 20.0429 44.944 25.3769 44.944 25.3769C39.865 31.2399 35.752 21.6829 33.509 14.3569C36.241 13.5859 38.266 10.8689 38.266 7.62695C38.266 3.78395 35.43 0.668945 31.928 0.668945C28.427 0.668945 25.59 3.78395 25.59 7.62695C25.59 10.9199 27.675 13.6669 30.476 14.3949C28.228 21.7219 24.122 31.2379 19.056 25.3819C19.056 25.3819 13.471 20.0479 7.45499 16.5939C7.68778 16.0363 7.80841 15.4382 7.80999 14.8339C7.80999 12.4779 6.06999 10.5709 3.92599 10.5709C1.78199 10.5709 0.0419922 12.4779 0.0419922 14.8339C0.0419922 17.1899 1.78199 19.0989 3.92599 19.0989C4.64599 19.0989 5.30899 18.8699 5.88899 18.4949C8.13299 23.1739 11.301 31.5849 9.64699 39.2989C9.64699 39.2989 12.082 49.0539 31.998 48.7249C51.913 49.0539 54.345 39.2989 54.345 39.2989C52.693 31.5879 55.86 23.1789 58.106 18.4949C58.686 18.8699 59.349 19.0989 60.069 19.0989C62.214 19.0989 63.954 17.1899 63.954 14.8339C63.954 12.4779 62.215 10.5699 60.07 10.5699" fill="#F79420"/>
<path fill-rule="evenodd" clip-rule="evenodd" d="M32.0004 50.9547C16.0874 51.2177 11.3384 45.0457 10.0734 42.5527C10.0221 43.678 9.88028 44.7972 9.64941 45.8997C9.64941 45.8997 12.0844 55.6527 32.0004 55.3277C51.9154 55.6527 54.3474 45.8997 54.3474 45.8997C54.1172 44.7972 53.9761 43.6779 53.9254 42.5527C52.6604 45.0457 47.9154 51.2177 32.0004 50.9547Z" fill="#C8832E"/>
<path fill-rule="evenodd" clip-rule="evenodd" d="M31.1 48.6142C33.958 34.2492 35.11 19.5842 30.829 5.3142C30.341 3.6902 30.213 2.1762 30.354 0.783203C27.614 1.5522 25.589 4.2692 25.589 7.5172C25.589 10.8102 27.674 13.5672 30.475 14.2832C28.227 21.6122 24.121 31.1302 19.055 25.2722C19.055 25.2722 13.47 19.9382 7.45402 16.4832C7.68693 15.9252 7.80757 15.3268 7.80902 14.7222C7.80902 12.3702 6.06902 10.4612 3.92502 10.4612C1.78102 10.4612 0.0410156 12.3702 0.0410156 14.7222C0.0410156 17.0802 1.78102 18.9892 3.92502 18.9892C4.64502 18.9892 5.30802 18.7582 5.88802 18.3852C8.13202 23.0612 11.3 31.4752 9.64602 39.1862C9.64602 39.1862 12.021 48.6332 31.1 48.6172" fill="#F19D43"/>
</svg>
