
<svg id="visual" viewBox="0 0 800 300" width="800" height="300" xmlns="http://www.w3.org/2000/svg" xmlns:xlink="http://www.w3.org/1999/xlink" version="1.1"><path d="M0 78L19 73.5C38 69 76 60 114.2 58C152.3 56 190.7 61 228.8 66.7C267 72.3 305 78.7 343 82.2C381 85.7 419 86.3 457 83.7C495 81 533 75 571.2 70.7C609.3 66.3 647.7 63.7 685.8 65.8C724 68 762 75 781 78.5L800 82L800 0L781 0C762 0 724 0 685.8 0C647.7 0 609.3 0 571.2 0C533 0 495 0 457 0C419 0 381 0 343 0C305 0 267 0 228.8 0C190.7 0 152.3 0 114.2 0C76 0 38 0 19 0L0 0Z" fill="#fafafa" stroke-linecap="round" stroke-linejoin="miter"></path></svg>