<svg id="visual" viewBox="0 0 800 300" width="800" height="300" xmlns="http://www.w3.org/2000/svg" xmlns:xlink="http://www.w3.org/1999/xlink" version="1.1"><path d="M0 19L19 22.8C38 26.7 76 34.3 114.2 35.8C152.3 37.3 190.7 32.7 228.8 32C267 31.3 305 34.7 343 34.3C381 34 419 30 457 26.3C495 22.7 533 19.3 571.2 19C609.3 18.7 647.7 21.3 685.8 23.8C724 26.3 762 28.7 781 29.8L800 31L800 0L781 0C762 0 724 0 685.8 0C647.7 0 609.3 0 571.2 0C533 0 495 0 457 0C419 0 381 0 343 0C305 0 267 0 228.8 0C190.7 0 152.3 0 114.2 0C76 0 38 0 19 0L0 0Z" fill="#fafafa" stroke-linecap="round" stroke-linejoin="miter"></path></svg>